# xmcd CD database file
#
# Track frame offsets:
#	150
#	15487
#	28125
#	43275
#	58487
#	73275
#	87612
#	104125
#	119362
#	134200
#	146650
#	166075
#	178587
#	193300
#
# Disc length: 2779 seconds
#
# Revision: 0
# Processed by: cddbd v1.4PL0 Copyright (c) Steve Scherf et al.
# Submitted via: CDex 1.50
#
DISCID=e70ad90e
DTITLE=Various Artist - 民歌紀念日
DYEAR=1994
DGENRE=Country
TTITLE0=曠野寄情
TTITLE1=如果
TTITLE2=拜訪春天
TTITLE3=忘了我是誰
TTITLE4=鄉間的小路
TTITLE5=萍聚
TTITLE6=何年何月在相逢
TTITLE7=海裡來的沙
TTITLE8=陽光和小雨
TTITLE9=讓我們看雲去
TTITLE10=偶然.為什麼
TTITLE11=小草
TTITLE12=季節雨
TTITLE13=思念總在分守後
EXTD=YEAR: 1994
EXTT0=
EXTT1=
EXTT2=
EXTT3=
EXTT4=
EXTT5=
EXTT6=
EXTT7=
EXTT8=
EXTT9=
EXTT10=
EXTT11=
EXTT12=
EXTT13=
PLAYORDER=
